<mxfile host="65bd71144e">
    <diagram id="C5RBs43oDa-KdzZeNtuy" name="Page-1">
        <mxGraphModel dx="933" dy="564" grid="1" gridSize="10" guides="1" tooltips="1" connect="1" arrows="1" fold="1" page="1" pageScale="1" pageWidth="827" pageHeight="1169" math="0" shadow="0">
            <root>
                <mxCell id="WIyWlLk6GJQsqaUBKTNV-0"/>
                <mxCell id="WIyWlLk6GJQsqaUBKTNV-1" parent="WIyWlLk6GJQsqaUBKTNV-0"/>
                <mxCell id="Z5hQmFH2F7mChiqIoMt5-158" value="" style="edgeStyle=none;rounded=0;orthogonalLoop=1;jettySize=auto;html=1;fontSize=9;entryX=0.5;entryY=0;entryDx=0;entryDy=0;endArrow=none;endFill=0;" parent="WIyWlLk6GJQsqaUBKTNV-1" source="Z5hQmFH2F7mChiqIoMt5-146" target="Z5hQmFH2F7mChiqIoMt5-14" edge="1">
                    <mxGeometry relative="1" as="geometry">
                        <mxPoint x="63.45724907063197" y="340" as="targetPoint"/>
                    </mxGeometry>
                </mxCell>
                <mxCell id="Z5hQmFH2F7mChiqIoMt5-254" value="" style="edgeStyle=none;rounded=0;orthogonalLoop=1;jettySize=auto;html=1;fontSize=9;exitX=0.5;exitY=1;exitDx=0;exitDy=0;endArrow=none;endFill=0;entryX=0.5;entryY=0;entryDx=0;entryDy=0;" parent="WIyWlLk6GJQsqaUBKTNV-1" source="Z5hQmFH2F7mChiqIoMt5-252" target="Z5hQmFH2F7mChiqIoMt5-146" edge="1">
                    <mxGeometry relative="1" as="geometry">
                        <mxPoint x="63.45724907063197" y="160" as="sourcePoint"/>
                    </mxGeometry>
                </mxCell>
                <mxCell id="Z5hQmFH2F7mChiqIoMt5-146" value="S+" style="rounded=0;whiteSpace=wrap;html=1;fontSize=9;" parent="WIyWlLk6GJQsqaUBKTNV-1" vertex="1">
                    <mxGeometry x="52.30483271375464" y="240" width="22.304832713754646" height="20" as="geometry"/>
                </mxCell>
                <mxCell id="Z5hQmFH2F7mChiqIoMt5-156" value="" style="edgeStyle=none;rounded=0;orthogonalLoop=1;jettySize=auto;html=1;fontSize=9;entryX=0.5;entryY=0;entryDx=0;entryDy=0;endArrow=none;endFill=0;" parent="WIyWlLk6GJQsqaUBKTNV-1" target="Z5hQmFH2F7mChiqIoMt5-15" edge="1">
                    <mxGeometry relative="1" as="geometry">
                        <mxPoint x="63" y="260" as="sourcePoint"/>
                    </mxGeometry>
                </mxCell>
                <mxCell id="Z5hQmFH2F7mChiqIoMt5-157" value="" style="edgeStyle=none;rounded=0;orthogonalLoop=1;jettySize=auto;html=1;fontSize=9;exitX=0.5;exitY=1;exitDx=0;exitDy=0;entryX=0.5;entryY=0;entryDx=0;entryDy=0;endArrow=none;endFill=0;" parent="WIyWlLk6GJQsqaUBKTNV-1" source="Z5hQmFH2F7mChiqIoMt5-146" target="Z5hQmFH2F7mChiqIoMt5-13" edge="1">
                    <mxGeometry relative="1" as="geometry">
                        <mxPoint x="41.152416356877325" y="200" as="sourcePoint"/>
                    </mxGeometry>
                </mxCell>
                <object label="" branch="0" id="Z5hQmFH2F7mChiqIoMt5-19">
                    <mxCell style="group;fontSize=9;" parent="WIyWlLk6GJQsqaUBKTNV-1" vertex="1" connectable="0">
                        <mxGeometry x="30" y="280" width="66.17100371747212" height="20" as="geometry"/>
                    </mxCell>
                </object>
                <mxCell id="Z5hQmFH2F7mChiqIoMt5-13" value="C" style="rounded=0;whiteSpace=wrap;html=1;fontSize=9;" parent="Z5hQmFH2F7mChiqIoMt5-19" vertex="1">
                    <mxGeometry width="22.304832713754646" height="20" as="geometry"/>
                </mxCell>
                <mxCell id="Z5hQmFH2F7mChiqIoMt5-14" value="" style="rounded=0;whiteSpace=wrap;html=1;fontSize=9;" parent="Z5hQmFH2F7mChiqIoMt5-19" vertex="1">
                    <mxGeometry x="22.304832713754646" width="22.304832713754646" height="20" as="geometry"/>
                </mxCell>
                <mxCell id="Z5hQmFH2F7mChiqIoMt5-15" value="" style="rounded=0;whiteSpace=wrap;html=1;fontSize=9;" parent="Z5hQmFH2F7mChiqIoMt5-19" vertex="1">
                    <mxGeometry x="43.86617100371747" width="22.304832713754646" height="20" as="geometry"/>
                </mxCell>
                <mxCell id="Z5hQmFH2F7mChiqIoMt5-175" value="" style="edgeStyle=none;rounded=0;orthogonalLoop=1;jettySize=auto;html=1;fontSize=9;entryX=0.5;entryY=0;entryDx=0;entryDy=0;endArrow=none;endFill=0;" parent="WIyWlLk6GJQsqaUBKTNV-1" source="Z5hQmFH2F7mChiqIoMt5-176" target="Z5hQmFH2F7mChiqIoMt5-181" edge="1">
                    <mxGeometry relative="1" as="geometry">
                        <mxPoint x="129.627249070632" y="340" as="targetPoint"/>
                    </mxGeometry>
                </mxCell>
                <mxCell id="Z5hQmFH2F7mChiqIoMt5-253" value="" style="edgeStyle=none;rounded=0;orthogonalLoop=1;jettySize=auto;html=1;fontSize=9;endArrow=none;endFill=0;" parent="WIyWlLk6GJQsqaUBKTNV-1" source="Z5hQmFH2F7mChiqIoMt5-252" target="Z5hQmFH2F7mChiqIoMt5-176" edge="1">
                    <mxGeometry relative="1" as="geometry"/>
                </mxCell>
                <mxCell id="Z5hQmFH2F7mChiqIoMt5-176" value="S-" style="rounded=0;whiteSpace=wrap;html=1;fontSize=9;" parent="WIyWlLk6GJQsqaUBKTNV-1" vertex="1">
                    <mxGeometry x="118.47483271375464" y="240" width="22.304832713754646" height="20" as="geometry"/>
                </mxCell>
                <mxCell id="Z5hQmFH2F7mChiqIoMt5-177" value="" style="edgeStyle=none;rounded=0;orthogonalLoop=1;jettySize=auto;html=1;fontSize=9;exitX=0.5;exitY=1;exitDx=0;exitDy=0;entryX=0.5;entryY=0;entryDx=0;entryDy=0;endArrow=none;endFill=0;" parent="WIyWlLk6GJQsqaUBKTNV-1" source="Z5hQmFH2F7mChiqIoMt5-176" target="Z5hQmFH2F7mChiqIoMt5-182" edge="1">
                    <mxGeometry relative="1" as="geometry"/>
                </mxCell>
                <mxCell id="Z5hQmFH2F7mChiqIoMt5-178" value="" style="edgeStyle=none;rounded=0;orthogonalLoop=1;jettySize=auto;html=1;fontSize=9;exitX=0.5;exitY=1;exitDx=0;exitDy=0;entryX=0.5;entryY=0;entryDx=0;entryDy=0;endArrow=none;endFill=0;" parent="WIyWlLk6GJQsqaUBKTNV-1" source="Z5hQmFH2F7mChiqIoMt5-176" target="Z5hQmFH2F7mChiqIoMt5-180" edge="1">
                    <mxGeometry relative="1" as="geometry">
                        <mxPoint x="107.32241635687733" y="200" as="sourcePoint"/>
                    </mxGeometry>
                </mxCell>
                <object label="" branch="0" id="Z5hQmFH2F7mChiqIoMt5-179">
                    <mxCell style="group;fontSize=9;" parent="WIyWlLk6GJQsqaUBKTNV-1" vertex="1" connectable="0">
                        <mxGeometry x="96.17" y="280" width="66.17100371747212" height="20" as="geometry"/>
                    </mxCell>
                </object>
                <mxCell id="Z5hQmFH2F7mChiqIoMt5-180" value="" style="rounded=0;whiteSpace=wrap;html=1;fontSize=9;" parent="Z5hQmFH2F7mChiqIoMt5-179" vertex="1">
                    <mxGeometry width="22.304832713754646" height="20" as="geometry"/>
                </mxCell>
                <mxCell id="Z5hQmFH2F7mChiqIoMt5-181" value="" style="rounded=0;whiteSpace=wrap;html=1;fontSize=9;" parent="Z5hQmFH2F7mChiqIoMt5-179" vertex="1">
                    <mxGeometry x="22.304832713754646" width="22.304832713754646" height="20" as="geometry"/>
                </mxCell>
                <mxCell id="Z5hQmFH2F7mChiqIoMt5-182" value="" style="rounded=0;whiteSpace=wrap;html=1;fontSize=9;" parent="Z5hQmFH2F7mChiqIoMt5-179" vertex="1">
                    <mxGeometry x="43.86617100371747" width="22.304832713754646" height="20" as="geometry"/>
                </mxCell>
                <mxCell id="Z5hQmFH2F7mChiqIoMt5-255" value="" style="edgeStyle=none;rounded=0;orthogonalLoop=1;jettySize=auto;html=1;fontSize=9;exitX=0.5;exitY=1;exitDx=0;exitDy=0;endArrow=none;endFill=0;exitPerimeter=0;entryX=0.5;entryY=0;entryDx=0;entryDy=0;" parent="WIyWlLk6GJQsqaUBKTNV-1" source="Z5hQmFH2F7mChiqIoMt5-252" edge="1">
                    <mxGeometry relative="1" as="geometry">
                        <mxPoint x="195.79724907063198" y="160" as="sourcePoint"/>
                        <mxPoint x="195.797249070632" y="240" as="targetPoint"/>
                    </mxGeometry>
                </mxCell>
                <mxCell id="Z5hQmFH2F7mChiqIoMt5-319" value="" style="edgeStyle=none;rounded=0;orthogonalLoop=1;jettySize=auto;html=1;fontSize=9;endArrow=none;endFill=0;entryX=0.5;entryY=1;entryDx=0;entryDy=0;exitX=0.5;exitY=0;exitDx=0;exitDy=0;" parent="WIyWlLk6GJQsqaUBKTNV-1" source="Z5hQmFH2F7mChiqIoMt5-252" target="Z5hQmFH2F7mChiqIoMt5-317" edge="1">
                    <mxGeometry relative="1" as="geometry">
                        <mxPoint x="129.62724907063196" y="120" as="targetPoint"/>
                    </mxGeometry>
                </mxCell>
                <mxCell id="Z5hQmFH2F7mChiqIoMt5-252" value="C" style="rounded=0;whiteSpace=wrap;html=1;fontSize=9;" parent="WIyWlLk6GJQsqaUBKTNV-1" vertex="1">
                    <mxGeometry x="118.47483271375464" y="200" width="22.304832713754646" height="20" as="geometry"/>
                </mxCell>
                <mxCell id="Z5hQmFH2F7mChiqIoMt5-261" value="" style="edgeStyle=none;rounded=0;orthogonalLoop=1;jettySize=auto;html=1;fontSize=9;entryX=0.5;entryY=0;entryDx=0;entryDy=0;endArrow=none;endFill=0;" parent="WIyWlLk6GJQsqaUBKTNV-1" source="Z5hQmFH2F7mChiqIoMt5-263" target="Z5hQmFH2F7mChiqIoMt5-268" edge="1">
                    <mxGeometry relative="1" as="geometry">
                        <mxPoint x="263.457249070632" y="340" as="targetPoint"/>
                    </mxGeometry>
                </mxCell>
                <mxCell id="Z5hQmFH2F7mChiqIoMt5-262" value="" style="edgeStyle=none;rounded=0;orthogonalLoop=1;jettySize=auto;html=1;fontSize=9;exitX=0.5;exitY=1;exitDx=0;exitDy=0;endArrow=none;endFill=0;entryX=0.5;entryY=0;entryDx=0;entryDy=0;" parent="WIyWlLk6GJQsqaUBKTNV-1" source="Z5hQmFH2F7mChiqIoMt5-288" target="Z5hQmFH2F7mChiqIoMt5-263" edge="1">
                    <mxGeometry relative="1" as="geometry">
                        <mxPoint x="263.457249070632" y="160" as="sourcePoint"/>
                    </mxGeometry>
                </mxCell>
                <mxCell id="Z5hQmFH2F7mChiqIoMt5-263" value="S+" style="rounded=0;whiteSpace=wrap;html=1;fontSize=9;" parent="WIyWlLk6GJQsqaUBKTNV-1" vertex="1">
                    <mxGeometry x="252.30483271375465" y="240" width="22.304832713754646" height="20" as="geometry"/>
                </mxCell>
                <mxCell id="Z5hQmFH2F7mChiqIoMt5-264" value="" style="edgeStyle=none;rounded=0;orthogonalLoop=1;jettySize=auto;html=1;fontSize=9;exitX=0.5;exitY=1;exitDx=0;exitDy=0;entryX=0.5;entryY=0;entryDx=0;entryDy=0;endArrow=none;endFill=0;" parent="WIyWlLk6GJQsqaUBKTNV-1" source="Z5hQmFH2F7mChiqIoMt5-263" target="Z5hQmFH2F7mChiqIoMt5-269" edge="1">
                    <mxGeometry relative="1" as="geometry"/>
                </mxCell>
                <mxCell id="Z5hQmFH2F7mChiqIoMt5-265" value="" style="edgeStyle=none;rounded=0;orthogonalLoop=1;jettySize=auto;html=1;fontSize=9;exitX=0.5;exitY=1;exitDx=0;exitDy=0;entryX=0.5;entryY=0;entryDx=0;entryDy=0;endArrow=none;endFill=0;" parent="WIyWlLk6GJQsqaUBKTNV-1" source="Z5hQmFH2F7mChiqIoMt5-263" target="Z5hQmFH2F7mChiqIoMt5-267" edge="1">
                    <mxGeometry relative="1" as="geometry">
                        <mxPoint x="241.15241635687732" y="200" as="sourcePoint"/>
                    </mxGeometry>
                </mxCell>
                <object label="" branch="0" id="Z5hQmFH2F7mChiqIoMt5-266">
                    <mxCell style="group;fontSize=9;" parent="WIyWlLk6GJQsqaUBKTNV-1" vertex="1" connectable="0">
                        <mxGeometry x="230" y="280" width="66.17100371747212" height="20" as="geometry"/>
                    </mxCell>
                </object>
                <mxCell id="Z5hQmFH2F7mChiqIoMt5-267" value="" style="rounded=0;whiteSpace=wrap;html=1;fontSize=9;" parent="Z5hQmFH2F7mChiqIoMt5-266" vertex="1">
                    <mxGeometry width="22.304832713754646" height="20" as="geometry"/>
                </mxCell>
                <mxCell id="Z5hQmFH2F7mChiqIoMt5-268" value="" style="rounded=0;whiteSpace=wrap;html=1;fontSize=9;" parent="Z5hQmFH2F7mChiqIoMt5-266" vertex="1">
                    <mxGeometry x="22.304832713754646" width="22.304832713754646" height="20" as="geometry"/>
                </mxCell>
                <mxCell id="Z5hQmFH2F7mChiqIoMt5-269" value="" style="rounded=0;whiteSpace=wrap;html=1;fontSize=9;" parent="Z5hQmFH2F7mChiqIoMt5-266" vertex="1">
                    <mxGeometry x="43.86617100371747" width="22.304832713754646" height="20" as="geometry"/>
                </mxCell>
                <mxCell id="Z5hQmFH2F7mChiqIoMt5-270" value="" style="edgeStyle=none;rounded=0;orthogonalLoop=1;jettySize=auto;html=1;fontSize=9;entryX=0.5;entryY=0;entryDx=0;entryDy=0;endArrow=none;endFill=0;" parent="WIyWlLk6GJQsqaUBKTNV-1" source="Z5hQmFH2F7mChiqIoMt5-272" target="Z5hQmFH2F7mChiqIoMt5-277" edge="1">
                    <mxGeometry relative="1" as="geometry">
                        <mxPoint x="329.627249070632" y="340" as="targetPoint"/>
                    </mxGeometry>
                </mxCell>
                <mxCell id="Z5hQmFH2F7mChiqIoMt5-271" value="" style="edgeStyle=none;rounded=0;orthogonalLoop=1;jettySize=auto;html=1;fontSize=9;endArrow=none;endFill=0;" parent="WIyWlLk6GJQsqaUBKTNV-1" source="Z5hQmFH2F7mChiqIoMt5-288" target="Z5hQmFH2F7mChiqIoMt5-272" edge="1">
                    <mxGeometry relative="1" as="geometry"/>
                </mxCell>
                <mxCell id="Z5hQmFH2F7mChiqIoMt5-272" value="S-" style="rounded=0;whiteSpace=wrap;html=1;fontSize=9;" parent="WIyWlLk6GJQsqaUBKTNV-1" vertex="1">
                    <mxGeometry x="318.4748327137546" y="240" width="22.304832713754646" height="20" as="geometry"/>
                </mxCell>
                <mxCell id="Z5hQmFH2F7mChiqIoMt5-273" value="" style="edgeStyle=none;rounded=0;orthogonalLoop=1;jettySize=auto;html=1;fontSize=9;entryX=0.5;entryY=0;entryDx=0;entryDy=0;endArrow=none;endFill=0;" parent="WIyWlLk6GJQsqaUBKTNV-1" target="Z5hQmFH2F7mChiqIoMt5-278" edge="1">
                    <mxGeometry relative="1" as="geometry">
                        <mxPoint x="330" y="260" as="sourcePoint"/>
                    </mxGeometry>
                </mxCell>
                <mxCell id="Z5hQmFH2F7mChiqIoMt5-274" value="" style="edgeStyle=none;rounded=0;orthogonalLoop=1;jettySize=auto;html=1;fontSize=9;exitX=0.5;exitY=1;exitDx=0;exitDy=0;entryX=0.5;entryY=0;entryDx=0;entryDy=0;endArrow=none;endFill=0;" parent="WIyWlLk6GJQsqaUBKTNV-1" source="Z5hQmFH2F7mChiqIoMt5-272" target="Z5hQmFH2F7mChiqIoMt5-276" edge="1">
                    <mxGeometry relative="1" as="geometry">
                        <mxPoint x="307.32241635687734" y="200" as="sourcePoint"/>
                    </mxGeometry>
                </mxCell>
                <object label="" branch="0" id="Z5hQmFH2F7mChiqIoMt5-275">
                    <mxCell style="group;fontSize=9;" parent="WIyWlLk6GJQsqaUBKTNV-1" vertex="1" connectable="0">
                        <mxGeometry x="296.17" y="280" width="66.17100371747212" height="20" as="geometry"/>
                    </mxCell>
                </object>
                <mxCell id="Z5hQmFH2F7mChiqIoMt5-276" value="" style="rounded=0;whiteSpace=wrap;html=1;fontSize=9;" parent="Z5hQmFH2F7mChiqIoMt5-275" vertex="1">
                    <mxGeometry width="22.304832713754646" height="20" as="geometry"/>
                </mxCell>
                <mxCell id="Z5hQmFH2F7mChiqIoMt5-277" value="" style="rounded=0;whiteSpace=wrap;html=1;fontSize=9;" parent="Z5hQmFH2F7mChiqIoMt5-275" vertex="1">
                    <mxGeometry x="22.304832713754646" width="22.304832713754646" height="20" as="geometry"/>
                </mxCell>
                <mxCell id="Z5hQmFH2F7mChiqIoMt5-278" value="" style="rounded=0;whiteSpace=wrap;html=1;fontSize=9;" parent="Z5hQmFH2F7mChiqIoMt5-275" vertex="1">
                    <mxGeometry x="43.86617100371747" width="22.304832713754646" height="20" as="geometry"/>
                </mxCell>
                <mxCell id="Z5hQmFH2F7mChiqIoMt5-279" value="" style="edgeStyle=none;rounded=0;orthogonalLoop=1;jettySize=auto;html=1;fontSize=9;entryX=0.5;entryY=0;entryDx=0;entryDy=0;endArrow=none;endFill=0;" parent="WIyWlLk6GJQsqaUBKTNV-1" source="Z5hQmFH2F7mChiqIoMt5-281" target="Z5hQmFH2F7mChiqIoMt5-286" edge="1">
                    <mxGeometry relative="1" as="geometry">
                        <mxPoint x="395.797249070632" y="340" as="targetPoint"/>
                    </mxGeometry>
                </mxCell>
                <mxCell id="Z5hQmFH2F7mChiqIoMt5-280" value="" style="edgeStyle=none;rounded=0;orthogonalLoop=1;jettySize=auto;html=1;fontSize=9;exitX=0.5;exitY=1;exitDx=0;exitDy=0;endArrow=none;endFill=0;entryX=0.5;entryY=0;entryDx=0;entryDy=0;" parent="WIyWlLk6GJQsqaUBKTNV-1" source="Z5hQmFH2F7mChiqIoMt5-288" target="Z5hQmFH2F7mChiqIoMt5-281" edge="1">
                    <mxGeometry relative="1" as="geometry">
                        <mxPoint x="395.797249070632" y="160" as="sourcePoint"/>
                    </mxGeometry>
                </mxCell>
                <mxCell id="Z5hQmFH2F7mChiqIoMt5-281" value="S-" style="rounded=0;whiteSpace=wrap;html=1;fontSize=9;" parent="WIyWlLk6GJQsqaUBKTNV-1" vertex="1">
                    <mxGeometry x="384.6448327137547" y="240" width="22.304832713754646" height="20" as="geometry"/>
                </mxCell>
                <mxCell id="Z5hQmFH2F7mChiqIoMt5-282" value="" style="edgeStyle=none;rounded=0;orthogonalLoop=1;jettySize=auto;html=1;fontSize=9;entryX=0.5;entryY=0;entryDx=0;entryDy=0;endArrow=none;endFill=0;" parent="WIyWlLk6GJQsqaUBKTNV-1" target="Z5hQmFH2F7mChiqIoMt5-287" edge="1">
                    <mxGeometry relative="1" as="geometry">
                        <mxPoint x="396" y="260" as="sourcePoint"/>
                    </mxGeometry>
                </mxCell>
                <mxCell id="Z5hQmFH2F7mChiqIoMt5-283" value="" style="edgeStyle=none;rounded=0;orthogonalLoop=1;jettySize=auto;html=1;fontSize=9;exitX=0.5;exitY=1;exitDx=0;exitDy=0;entryX=0.5;entryY=0;entryDx=0;entryDy=0;endArrow=none;endFill=0;" parent="WIyWlLk6GJQsqaUBKTNV-1" source="Z5hQmFH2F7mChiqIoMt5-281" target="Z5hQmFH2F7mChiqIoMt5-285" edge="1">
                    <mxGeometry relative="1" as="geometry">
                        <mxPoint x="373.49241635687736" y="200" as="sourcePoint"/>
                    </mxGeometry>
                </mxCell>
                <object label="" branch="0" id="Z5hQmFH2F7mChiqIoMt5-284">
                    <mxCell style="group;fontSize=9;" parent="WIyWlLk6GJQsqaUBKTNV-1" vertex="1" connectable="0">
                        <mxGeometry x="362.34000000000003" y="280" width="66.17100371747212" height="20" as="geometry"/>
                    </mxCell>
                </object>
                <mxCell id="Z5hQmFH2F7mChiqIoMt5-285" value="" style="rounded=0;whiteSpace=wrap;html=1;fontSize=9;" parent="Z5hQmFH2F7mChiqIoMt5-284" vertex="1">
                    <mxGeometry width="22.304832713754646" height="20" as="geometry"/>
                </mxCell>
                <mxCell id="Z5hQmFH2F7mChiqIoMt5-286" value="" style="rounded=0;whiteSpace=wrap;html=1;fontSize=9;" parent="Z5hQmFH2F7mChiqIoMt5-284" vertex="1">
                    <mxGeometry x="22.304832713754646" width="22.304832713754646" height="20" as="geometry"/>
                </mxCell>
                <mxCell id="Z5hQmFH2F7mChiqIoMt5-287" value="" style="rounded=0;whiteSpace=wrap;html=1;fontSize=9;" parent="Z5hQmFH2F7mChiqIoMt5-284" vertex="1">
                    <mxGeometry x="43.86617100371747" width="22.304832713754646" height="20" as="geometry"/>
                </mxCell>
                <mxCell id="Z5hQmFH2F7mChiqIoMt5-318" value="" style="edgeStyle=none;rounded=0;orthogonalLoop=1;jettySize=auto;html=1;fontSize=9;endArrow=none;endFill=0;" parent="WIyWlLk6GJQsqaUBKTNV-1" source="Z5hQmFH2F7mChiqIoMt5-288" target="Z5hQmFH2F7mChiqIoMt5-317" edge="1">
                    <mxGeometry relative="1" as="geometry"/>
                </mxCell>
                <mxCell id="Z5hQmFH2F7mChiqIoMt5-288" value="C" style="rounded=0;whiteSpace=wrap;html=1;fontSize=9;" parent="WIyWlLk6GJQsqaUBKTNV-1" vertex="1">
                    <mxGeometry x="318.4748327137546" y="200" width="22.304832713754646" height="20" as="geometry"/>
                </mxCell>
                <mxCell id="Z5hQmFH2F7mChiqIoMt5-289" value="" style="edgeStyle=none;rounded=0;orthogonalLoop=1;jettySize=auto;html=1;fontSize=9;entryX=0.5;entryY=0;entryDx=0;entryDy=0;endArrow=none;endFill=0;" parent="WIyWlLk6GJQsqaUBKTNV-1" source="Z5hQmFH2F7mChiqIoMt5-291" target="Z5hQmFH2F7mChiqIoMt5-296" edge="1">
                    <mxGeometry relative="1" as="geometry">
                        <mxPoint x="463.457249070632" y="340" as="targetPoint"/>
                    </mxGeometry>
                </mxCell>
                <mxCell id="Z5hQmFH2F7mChiqIoMt5-290" value="" style="edgeStyle=none;rounded=0;orthogonalLoop=1;jettySize=auto;html=1;fontSize=9;exitX=0.5;exitY=1;exitDx=0;exitDy=0;endArrow=none;endFill=0;entryX=0.5;entryY=0;entryDx=0;entryDy=0;" parent="WIyWlLk6GJQsqaUBKTNV-1" source="Z5hQmFH2F7mChiqIoMt5-316" target="Z5hQmFH2F7mChiqIoMt5-291" edge="1">
                    <mxGeometry relative="1" as="geometry">
                        <mxPoint x="463.457249070632" y="160" as="sourcePoint"/>
                    </mxGeometry>
                </mxCell>
                <mxCell id="Z5hQmFH2F7mChiqIoMt5-291" value="S+" style="rounded=0;whiteSpace=wrap;html=1;fontSize=9;" parent="WIyWlLk6GJQsqaUBKTNV-1" vertex="1">
                    <mxGeometry x="452.30483271375465" y="240" width="22.304832713754646" height="20" as="geometry"/>
                </mxCell>
                <mxCell id="Z5hQmFH2F7mChiqIoMt5-292" value="" style="edgeStyle=none;rounded=0;orthogonalLoop=1;jettySize=auto;html=1;fontSize=9;exitX=0.5;exitY=1;exitDx=0;exitDy=0;entryX=0.5;entryY=0;entryDx=0;entryDy=0;endArrow=none;endFill=0;" parent="WIyWlLk6GJQsqaUBKTNV-1" source="Z5hQmFH2F7mChiqIoMt5-291" target="Z5hQmFH2F7mChiqIoMt5-297" edge="1">
                    <mxGeometry relative="1" as="geometry"/>
                </mxCell>
                <mxCell id="Z5hQmFH2F7mChiqIoMt5-293" value="" style="edgeStyle=none;rounded=0;orthogonalLoop=1;jettySize=auto;html=1;fontSize=9;exitX=0.5;exitY=1;exitDx=0;exitDy=0;entryX=0.5;entryY=0;entryDx=0;entryDy=0;endArrow=none;endFill=0;" parent="WIyWlLk6GJQsqaUBKTNV-1" source="Z5hQmFH2F7mChiqIoMt5-291" target="Z5hQmFH2F7mChiqIoMt5-295" edge="1">
                    <mxGeometry relative="1" as="geometry">
                        <mxPoint x="441.1524163568773" y="200" as="sourcePoint"/>
                    </mxGeometry>
                </mxCell>
                <object label="" branch="0" id="Z5hQmFH2F7mChiqIoMt5-294">
                    <mxCell style="group;fontSize=9;" parent="WIyWlLk6GJQsqaUBKTNV-1" vertex="1" connectable="0">
                        <mxGeometry x="430" y="280" width="66.17100371747212" height="20" as="geometry"/>
                    </mxCell>
                </object>
                <mxCell id="Z5hQmFH2F7mChiqIoMt5-295" value="" style="rounded=0;whiteSpace=wrap;html=1;fontSize=9;" parent="Z5hQmFH2F7mChiqIoMt5-294" vertex="1">
                    <mxGeometry width="22.304832713754646" height="20" as="geometry"/>
                </mxCell>
                <mxCell id="Z5hQmFH2F7mChiqIoMt5-296" value="" style="rounded=0;whiteSpace=wrap;html=1;fontSize=9;" parent="Z5hQmFH2F7mChiqIoMt5-294" vertex="1">
                    <mxGeometry x="22.304832713754646" width="22.304832713754646" height="20" as="geometry"/>
                </mxCell>
                <mxCell id="Z5hQmFH2F7mChiqIoMt5-297" value="" style="rounded=0;whiteSpace=wrap;html=1;fontSize=9;" parent="Z5hQmFH2F7mChiqIoMt5-294" vertex="1">
                    <mxGeometry x="43.86617100371747" width="22.304832713754646" height="20" as="geometry"/>
                </mxCell>
                <mxCell id="Z5hQmFH2F7mChiqIoMt5-298" value="" style="edgeStyle=none;rounded=0;orthogonalLoop=1;jettySize=auto;html=1;fontSize=9;entryX=0.5;entryY=0;entryDx=0;entryDy=0;endArrow=none;endFill=0;" parent="WIyWlLk6GJQsqaUBKTNV-1" source="Z5hQmFH2F7mChiqIoMt5-300" target="Z5hQmFH2F7mChiqIoMt5-305" edge="1">
                    <mxGeometry relative="1" as="geometry">
                        <mxPoint x="529.6272490706319" y="340" as="targetPoint"/>
                    </mxGeometry>
                </mxCell>
                <mxCell id="Z5hQmFH2F7mChiqIoMt5-299" value="" style="edgeStyle=none;rounded=0;orthogonalLoop=1;jettySize=auto;html=1;fontSize=9;endArrow=none;endFill=0;" parent="WIyWlLk6GJQsqaUBKTNV-1" source="Z5hQmFH2F7mChiqIoMt5-316" target="Z5hQmFH2F7mChiqIoMt5-300" edge="1">
                    <mxGeometry relative="1" as="geometry"/>
                </mxCell>
                <mxCell id="Z5hQmFH2F7mChiqIoMt5-300" value="S-" style="rounded=0;whiteSpace=wrap;html=1;fontSize=9;" parent="WIyWlLk6GJQsqaUBKTNV-1" vertex="1">
                    <mxGeometry x="518.4748327137546" y="240" width="22.304832713754646" height="20" as="geometry"/>
                </mxCell>
                <mxCell id="Z5hQmFH2F7mChiqIoMt5-301" value="" style="edgeStyle=none;rounded=0;orthogonalLoop=1;jettySize=auto;html=1;fontSize=9;exitX=0.5;exitY=1;exitDx=0;exitDy=0;entryX=0.5;entryY=0;entryDx=0;entryDy=0;endArrow=none;endFill=0;" parent="WIyWlLk6GJQsqaUBKTNV-1" source="Z5hQmFH2F7mChiqIoMt5-300" target="Z5hQmFH2F7mChiqIoMt5-306" edge="1">
                    <mxGeometry relative="1" as="geometry"/>
                </mxCell>
                <mxCell id="Z5hQmFH2F7mChiqIoMt5-302" value="" style="edgeStyle=none;rounded=0;orthogonalLoop=1;jettySize=auto;html=1;fontSize=9;exitX=0.5;exitY=1;exitDx=0;exitDy=0;entryX=0.5;entryY=0;entryDx=0;entryDy=0;endArrow=none;endFill=0;" parent="WIyWlLk6GJQsqaUBKTNV-1" source="Z5hQmFH2F7mChiqIoMt5-300" target="Z5hQmFH2F7mChiqIoMt5-304" edge="1">
                    <mxGeometry relative="1" as="geometry">
                        <mxPoint x="507.32241635687734" y="200" as="sourcePoint"/>
                    </mxGeometry>
                </mxCell>
                <object label="" branch="0" id="Z5hQmFH2F7mChiqIoMt5-303">
                    <mxCell style="group;fontSize=9;" parent="WIyWlLk6GJQsqaUBKTNV-1" vertex="1" connectable="0">
                        <mxGeometry x="496.17" y="280" width="66.17100371747212" height="20" as="geometry"/>
                    </mxCell>
                </object>
                <mxCell id="Z5hQmFH2F7mChiqIoMt5-304" value="" style="rounded=0;whiteSpace=wrap;html=1;fontSize=9;" parent="Z5hQmFH2F7mChiqIoMt5-303" vertex="1">
                    <mxGeometry width="22.304832713754646" height="20" as="geometry"/>
                </mxCell>
                <mxCell id="Z5hQmFH2F7mChiqIoMt5-305" value="" style="rounded=0;whiteSpace=wrap;html=1;fontSize=9;" parent="Z5hQmFH2F7mChiqIoMt5-303" vertex="1">
                    <mxGeometry x="22.304832713754646" width="22.304832713754646" height="20" as="geometry"/>
                </mxCell>
                <mxCell id="Z5hQmFH2F7mChiqIoMt5-306" value="" style="rounded=0;whiteSpace=wrap;html=1;fontSize=9;" parent="Z5hQmFH2F7mChiqIoMt5-303" vertex="1">
                    <mxGeometry x="43.86617100371747" width="22.304832713754646" height="20" as="geometry"/>
                </mxCell>
                <mxCell id="Z5hQmFH2F7mChiqIoMt5-307" value="" style="edgeStyle=none;rounded=0;orthogonalLoop=1;jettySize=auto;html=1;fontSize=9;entryX=0.5;entryY=0;entryDx=0;entryDy=0;endArrow=none;endFill=0;" parent="WIyWlLk6GJQsqaUBKTNV-1" source="Z5hQmFH2F7mChiqIoMt5-309" target="Z5hQmFH2F7mChiqIoMt5-314" edge="1">
                    <mxGeometry relative="1" as="geometry">
                        <mxPoint x="595.797249070632" y="340" as="targetPoint"/>
                    </mxGeometry>
                </mxCell>
                <mxCell id="Z5hQmFH2F7mChiqIoMt5-308" value="" style="edgeStyle=none;rounded=0;orthogonalLoop=1;jettySize=auto;html=1;fontSize=9;exitX=0.5;exitY=1;exitDx=0;exitDy=0;endArrow=none;endFill=0;entryX=0.5;entryY=0;entryDx=0;entryDy=0;" parent="WIyWlLk6GJQsqaUBKTNV-1" source="Z5hQmFH2F7mChiqIoMt5-316" target="Z5hQmFH2F7mChiqIoMt5-309" edge="1">
                    <mxGeometry relative="1" as="geometry">
                        <mxPoint x="595.797249070632" y="160" as="sourcePoint"/>
                    </mxGeometry>
                </mxCell>
                <mxCell id="Z5hQmFH2F7mChiqIoMt5-309" value="S-" style="rounded=0;whiteSpace=wrap;html=1;fontSize=9;" parent="WIyWlLk6GJQsqaUBKTNV-1" vertex="1">
                    <mxGeometry x="584.6448327137547" y="240" width="22.304832713754646" height="20" as="geometry"/>
                </mxCell>
                <mxCell id="Z5hQmFH2F7mChiqIoMt5-310" value="" style="edgeStyle=none;rounded=0;orthogonalLoop=1;jettySize=auto;html=1;fontSize=9;exitX=0.5;exitY=1;exitDx=0;exitDy=0;entryX=0.5;entryY=0;entryDx=0;entryDy=0;endArrow=none;endFill=0;" parent="WIyWlLk6GJQsqaUBKTNV-1" source="Z5hQmFH2F7mChiqIoMt5-309" target="Z5hQmFH2F7mChiqIoMt5-315" edge="1">
                    <mxGeometry relative="1" as="geometry"/>
                </mxCell>
                <mxCell id="Z5hQmFH2F7mChiqIoMt5-311" value="" style="edgeStyle=none;rounded=0;orthogonalLoop=1;jettySize=auto;html=1;fontSize=9;exitX=0.5;exitY=1;exitDx=0;exitDy=0;entryX=0.5;entryY=0;entryDx=0;entryDy=0;endArrow=none;endFill=0;" parent="WIyWlLk6GJQsqaUBKTNV-1" source="Z5hQmFH2F7mChiqIoMt5-309" target="Z5hQmFH2F7mChiqIoMt5-313" edge="1">
                    <mxGeometry relative="1" as="geometry">
                        <mxPoint x="573.4924163568774" y="200" as="sourcePoint"/>
                    </mxGeometry>
                </mxCell>
                <object label="" branch="0" id="Z5hQmFH2F7mChiqIoMt5-312">
                    <mxCell style="group;fontSize=9;" parent="WIyWlLk6GJQsqaUBKTNV-1" vertex="1" connectable="0">
                        <mxGeometry x="562.34" y="280" width="66.17100371747212" height="20" as="geometry"/>
                    </mxCell>
                </object>
                <mxCell id="Z5hQmFH2F7mChiqIoMt5-313" value="" style="rounded=0;whiteSpace=wrap;html=1;fontSize=9;" parent="Z5hQmFH2F7mChiqIoMt5-312" vertex="1">
                    <mxGeometry width="22.304832713754646" height="20" as="geometry"/>
                </mxCell>
                <mxCell id="Z5hQmFH2F7mChiqIoMt5-314" value="" style="rounded=0;whiteSpace=wrap;html=1;fontSize=9;" parent="Z5hQmFH2F7mChiqIoMt5-312" vertex="1">
                    <mxGeometry x="22.304832713754646" width="22.304832713754646" height="20" as="geometry"/>
                </mxCell>
                <mxCell id="Z5hQmFH2F7mChiqIoMt5-315" value="" style="rounded=0;whiteSpace=wrap;html=1;fontSize=9;" parent="Z5hQmFH2F7mChiqIoMt5-312" vertex="1">
                    <mxGeometry x="43.86617100371747" width="22.304832713754646" height="20" as="geometry"/>
                </mxCell>
                <mxCell id="Z5hQmFH2F7mChiqIoMt5-320" value="" style="edgeStyle=none;rounded=0;orthogonalLoop=1;jettySize=auto;html=1;fontSize=9;endArrow=none;endFill=0;entryX=0.5;entryY=1;entryDx=0;entryDy=0;exitX=0.5;exitY=0;exitDx=0;exitDy=0;" parent="WIyWlLk6GJQsqaUBKTNV-1" source="Z5hQmFH2F7mChiqIoMt5-316" target="Z5hQmFH2F7mChiqIoMt5-317" edge="1">
                    <mxGeometry relative="1" as="geometry">
                        <mxPoint x="529.6272490706319" y="120" as="targetPoint"/>
                    </mxGeometry>
                </mxCell>
                <mxCell id="Z5hQmFH2F7mChiqIoMt5-316" value="C" style="rounded=0;whiteSpace=wrap;html=1;fontSize=9;" parent="WIyWlLk6GJQsqaUBKTNV-1" vertex="1">
                    <mxGeometry x="518.4748327137546" y="200" width="22.304832713754646" height="20" as="geometry"/>
                </mxCell>
                <mxCell id="Z5hQmFH2F7mChiqIoMt5-317" value="S+" style="rounded=0;whiteSpace=wrap;html=1;fontSize=9;" parent="WIyWlLk6GJQsqaUBKTNV-1" vertex="1">
                    <mxGeometry x="318.4748327137546" y="150" width="22.304832713754646" height="20" as="geometry"/>
                </mxCell>
                <object label="" branch="0" id="nwHU5ip1WEYhQN9irnRJ-80">
                    <mxCell style="group;fontSize=9;fontStyle=1;" parent="WIyWlLk6GJQsqaUBKTNV-1" vertex="1" connectable="0">
                        <mxGeometry x="30" y="400" width="66.17100371747212" height="20" as="geometry"/>
                    </mxCell>
                </object>
                <mxCell id="nwHU5ip1WEYhQN9irnRJ-81" value="0" style="rounded=0;whiteSpace=wrap;html=1;fontSize=9;fontStyle=1;" parent="nwHU5ip1WEYhQN9irnRJ-80" vertex="1">
                    <mxGeometry width="22.304832713754646" height="20" as="geometry"/>
                </mxCell>
                <mxCell id="nwHU5ip1WEYhQN9irnRJ-82" value="1" style="rounded=0;whiteSpace=wrap;html=1;fontSize=9;fontStyle=1;" parent="nwHU5ip1WEYhQN9irnRJ-80" vertex="1">
                    <mxGeometry x="22.304832713754646" width="22.304832713754646" height="20" as="geometry"/>
                </mxCell>
                <mxCell id="nwHU5ip1WEYhQN9irnRJ-83" value="2" style="rounded=0;whiteSpace=wrap;html=1;fontSize=9;fontStyle=1;" parent="nwHU5ip1WEYhQN9irnRJ-80" vertex="1">
                    <mxGeometry x="43.86617100371747" width="22.304832713754646" height="20" as="geometry"/>
                </mxCell>
                <object label="" branch="0" id="nwHU5ip1WEYhQN9irnRJ-89">
                    <mxCell style="group;fontSize=9;fontStyle=1;" parent="WIyWlLk6GJQsqaUBKTNV-1" vertex="1" connectable="0">
                        <mxGeometry x="96.17" y="400" width="66.17100371747212" height="20" as="geometry"/>
                    </mxCell>
                </object>
                <mxCell id="nwHU5ip1WEYhQN9irnRJ-90" value="3" style="rounded=0;whiteSpace=wrap;html=1;fontSize=9;fontStyle=1;" parent="nwHU5ip1WEYhQN9irnRJ-89" vertex="1">
                    <mxGeometry width="22.304832713754646" height="20" as="geometry"/>
                </mxCell>
                <mxCell id="nwHU5ip1WEYhQN9irnRJ-91" value="" style="rounded=0;whiteSpace=wrap;html=1;fontSize=9;fontStyle=1;" parent="nwHU5ip1WEYhQN9irnRJ-89" vertex="1">
                    <mxGeometry x="22.304832713754646" width="22.304832713754646" height="20" as="geometry"/>
                </mxCell>
                <mxCell id="nwHU5ip1WEYhQN9irnRJ-92" value="" style="rounded=0;whiteSpace=wrap;html=1;fontSize=9;fontStyle=1;" parent="nwHU5ip1WEYhQN9irnRJ-89" vertex="1">
                    <mxGeometry x="43.86617100371747" width="22.304832713754646" height="20" as="geometry"/>
                </mxCell>
                <object label="" branch="0" id="nwHU5ip1WEYhQN9irnRJ-98">
                    <mxCell style="group;fontSize=9;fontStyle=1;" parent="WIyWlLk6GJQsqaUBKTNV-1" vertex="1" connectable="0">
                        <mxGeometry x="162.34" y="400" width="66.17100371747212" height="20" as="geometry"/>
                    </mxCell>
                </object>
                <mxCell id="nwHU5ip1WEYhQN9irnRJ-99" value="" style="rounded=0;whiteSpace=wrap;html=1;fontSize=9;fontStyle=1;" parent="nwHU5ip1WEYhQN9irnRJ-98" vertex="1">
                    <mxGeometry width="22.304832713754646" height="20" as="geometry"/>
                </mxCell>
                <mxCell id="nwHU5ip1WEYhQN9irnRJ-100" value="" style="rounded=0;whiteSpace=wrap;html=1;fontSize=9;fontStyle=1;" parent="nwHU5ip1WEYhQN9irnRJ-98" vertex="1">
                    <mxGeometry x="22.304832713754646" width="22.304832713754646" height="20" as="geometry"/>
                </mxCell>
                <mxCell id="nwHU5ip1WEYhQN9irnRJ-101" value="" style="rounded=0;whiteSpace=wrap;html=1;fontSize=9;fontStyle=1;" parent="nwHU5ip1WEYhQN9irnRJ-98" vertex="1">
                    <mxGeometry x="43.86617100371747" width="22.304832713754646" height="20" as="geometry"/>
                </mxCell>
                <object label="" branch="0" id="nwHU5ip1WEYhQN9irnRJ-107">
                    <mxCell style="group;fontSize=9;" parent="WIyWlLk6GJQsqaUBKTNV-1" vertex="1" connectable="0">
                        <mxGeometry x="230" y="400" width="66.17100371747212" height="20" as="geometry"/>
                    </mxCell>
                </object>
                <mxCell id="nwHU5ip1WEYhQN9irnRJ-108" value="" style="rounded=0;whiteSpace=wrap;html=1;fontSize=9;" parent="nwHU5ip1WEYhQN9irnRJ-107" vertex="1">
                    <mxGeometry width="22.304832713754646" height="20" as="geometry"/>
                </mxCell>
                <mxCell id="nwHU5ip1WEYhQN9irnRJ-109" value="" style="rounded=0;whiteSpace=wrap;html=1;fontSize=9;" parent="nwHU5ip1WEYhQN9irnRJ-107" vertex="1">
                    <mxGeometry x="22.304832713754646" width="22.304832713754646" height="20" as="geometry"/>
                </mxCell>
                <mxCell id="nwHU5ip1WEYhQN9irnRJ-110" value="" style="rounded=0;whiteSpace=wrap;html=1;fontSize=9;" parent="nwHU5ip1WEYhQN9irnRJ-107" vertex="1">
                    <mxGeometry x="43.86617100371747" width="22.304832713754646" height="20" as="geometry"/>
                </mxCell>
                <object label="" branch="0" id="nwHU5ip1WEYhQN9irnRJ-116">
                    <mxCell style="group;fontSize=9;" parent="WIyWlLk6GJQsqaUBKTNV-1" vertex="1" connectable="0">
                        <mxGeometry x="296.17" y="400" width="66.17100371747212" height="20" as="geometry"/>
                    </mxCell>
                </object>
                <mxCell id="nwHU5ip1WEYhQN9irnRJ-117" value="" style="rounded=0;whiteSpace=wrap;html=1;fontSize=9;" parent="nwHU5ip1WEYhQN9irnRJ-116" vertex="1">
                    <mxGeometry width="22.304832713754646" height="20" as="geometry"/>
                </mxCell>
                <mxCell id="nwHU5ip1WEYhQN9irnRJ-118" value="" style="rounded=0;whiteSpace=wrap;html=1;fontSize=9;" parent="nwHU5ip1WEYhQN9irnRJ-116" vertex="1">
                    <mxGeometry x="22.304832713754646" width="22.304832713754646" height="20" as="geometry"/>
                </mxCell>
                <mxCell id="nwHU5ip1WEYhQN9irnRJ-119" value="" style="rounded=0;whiteSpace=wrap;html=1;fontSize=9;" parent="nwHU5ip1WEYhQN9irnRJ-116" vertex="1">
                    <mxGeometry x="43.86617100371747" width="22.304832713754646" height="20" as="geometry"/>
                </mxCell>
                <object label="" branch="0" id="nwHU5ip1WEYhQN9irnRJ-125">
                    <mxCell style="group;fontSize=9;" parent="WIyWlLk6GJQsqaUBKTNV-1" vertex="1" connectable="0">
                        <mxGeometry x="362.34000000000003" y="400" width="66.17100371747212" height="20" as="geometry"/>
                    </mxCell>
                </object>
                <mxCell id="nwHU5ip1WEYhQN9irnRJ-126" value="" style="rounded=0;whiteSpace=wrap;html=1;fontSize=9;" parent="nwHU5ip1WEYhQN9irnRJ-125" vertex="1">
                    <mxGeometry width="22.304832713754646" height="20" as="geometry"/>
                </mxCell>
                <mxCell id="nwHU5ip1WEYhQN9irnRJ-127" value="" style="rounded=0;whiteSpace=wrap;html=1;fontSize=9;" parent="nwHU5ip1WEYhQN9irnRJ-125" vertex="1">
                    <mxGeometry x="22.304832713754646" width="22.304832713754646" height="20" as="geometry"/>
                </mxCell>
                <mxCell id="nwHU5ip1WEYhQN9irnRJ-128" value="" style="rounded=0;whiteSpace=wrap;html=1;fontSize=9;" parent="nwHU5ip1WEYhQN9irnRJ-125" vertex="1">
                    <mxGeometry x="43.86617100371747" width="22.304832713754646" height="20" as="geometry"/>
                </mxCell>
                <object label="" branch="0" id="nwHU5ip1WEYhQN9irnRJ-134">
                    <mxCell style="group;fontSize=9;" parent="WIyWlLk6GJQsqaUBKTNV-1" vertex="1" connectable="0">
                        <mxGeometry x="430" y="400" width="66.17100371747212" height="20" as="geometry"/>
                    </mxCell>
                </object>
                <mxCell id="nwHU5ip1WEYhQN9irnRJ-135" value="" style="rounded=0;whiteSpace=wrap;html=1;fontSize=9;" parent="nwHU5ip1WEYhQN9irnRJ-134" vertex="1">
                    <mxGeometry width="22.304832713754646" height="20" as="geometry"/>
                </mxCell>
                <mxCell id="nwHU5ip1WEYhQN9irnRJ-136" value="" style="rounded=0;whiteSpace=wrap;html=1;fontSize=9;" parent="nwHU5ip1WEYhQN9irnRJ-134" vertex="1">
                    <mxGeometry x="22.304832713754646" width="22.304832713754646" height="20" as="geometry"/>
                </mxCell>
                <mxCell id="nwHU5ip1WEYhQN9irnRJ-137" value="" style="rounded=0;whiteSpace=wrap;html=1;fontSize=9;" parent="nwHU5ip1WEYhQN9irnRJ-134" vertex="1">
                    <mxGeometry x="43.86617100371747" width="22.304832713754646" height="20" as="geometry"/>
                </mxCell>
                <object label="" branch="0" id="nwHU5ip1WEYhQN9irnRJ-143">
                    <mxCell style="group;fontSize=9;" parent="WIyWlLk6GJQsqaUBKTNV-1" vertex="1" connectable="0">
                        <mxGeometry x="496.17" y="400" width="66.17100371747212" height="20" as="geometry"/>
                    </mxCell>
                </object>
                <mxCell id="nwHU5ip1WEYhQN9irnRJ-144" value="" style="rounded=0;whiteSpace=wrap;html=1;fontSize=9;" parent="nwHU5ip1WEYhQN9irnRJ-143" vertex="1">
                    <mxGeometry width="22.304832713754646" height="20" as="geometry"/>
                </mxCell>
                <mxCell id="nwHU5ip1WEYhQN9irnRJ-145" value="" style="rounded=0;whiteSpace=wrap;html=1;fontSize=9;" parent="nwHU5ip1WEYhQN9irnRJ-143" vertex="1">
                    <mxGeometry x="22.304832713754646" width="22.304832713754646" height="20" as="geometry"/>
                </mxCell>
                <mxCell id="nwHU5ip1WEYhQN9irnRJ-146" value="" style="rounded=0;whiteSpace=wrap;html=1;fontSize=9;" parent="nwHU5ip1WEYhQN9irnRJ-143" vertex="1">
                    <mxGeometry x="43.86617100371747" width="22.304832713754646" height="20" as="geometry"/>
                </mxCell>
                <object label="" branch="0" id="nwHU5ip1WEYhQN9irnRJ-152">
                    <mxCell style="group;fontSize=9;" parent="WIyWlLk6GJQsqaUBKTNV-1" vertex="1" connectable="0">
                        <mxGeometry x="562.34" y="400" width="66.17100371747212" height="20" as="geometry"/>
                    </mxCell>
                </object>
                <mxCell id="nwHU5ip1WEYhQN9irnRJ-153" value="" style="rounded=0;whiteSpace=wrap;html=1;fontSize=9;" parent="nwHU5ip1WEYhQN9irnRJ-152" vertex="1">
                    <mxGeometry width="22.304832713754646" height="20" as="geometry"/>
                </mxCell>
                <mxCell id="nwHU5ip1WEYhQN9irnRJ-154" value="" style="rounded=0;whiteSpace=wrap;html=1;fontSize=9;" parent="nwHU5ip1WEYhQN9irnRJ-152" vertex="1">
                    <mxGeometry x="22.304832713754646" width="22.304832713754646" height="20" as="geometry"/>
                </mxCell>
                <mxCell id="nwHU5ip1WEYhQN9irnRJ-155" value="" style="rounded=0;whiteSpace=wrap;html=1;fontSize=9;" parent="nwHU5ip1WEYhQN9irnRJ-152" vertex="1">
                    <mxGeometry x="43.86617100371747" width="22.304832713754646" height="20" as="geometry"/>
                </mxCell>
                <mxCell id="nwHU5ip1WEYhQN9irnRJ-285" value="&lt;div style=&quot;font-size: 14px&quot;&gt;&lt;font style=&quot;font-size: 14px&quot;&gt;&lt;span style=&quot;white-space: pre&quot;&gt;&lt;span style=&quot;white-space: pre&quot;&gt;&#9;&lt;/span&gt;&lt;b&gt;heap expectiminimax backtracking&lt;/b&gt;&lt;/span&gt;&lt;/font&gt;&lt;/div&gt;&lt;div style=&quot;font-size: 14px&quot;&gt;&lt;font style=&quot;font-size: 14px&quot;&gt;&lt;span style=&quot;white-space: pre&quot;&gt;&lt;/span&gt;&lt;/font&gt;&lt;/div&gt;&lt;div style=&quot;font-size: 14px&quot;&gt;&lt;font style=&quot;font-size: 14px&quot;&gt;&lt;span style=&quot;white-space: pre&quot;&gt;&#9;&lt;/span&gt;S+&lt;span style=&quot;white-space: pre&quot;&gt;&#9;&lt;/span&gt;maximizer strategy node&lt;br&gt;&lt;/font&gt;&lt;/div&gt;&lt;div style=&quot;font-size: 14px&quot;&gt;&lt;font style=&quot;font-size: 14px&quot;&gt;&lt;span style=&quot;white-space: pre&quot;&gt;&#9;&lt;/span&gt;S- &lt;span style=&quot;white-space: pre&quot;&gt;&#9;&lt;/span&gt;minimizer&lt;span style=&quot;white-space: pre&quot;&gt; strategy node&lt;/span&gt;&lt;/font&gt;&lt;/div&gt;&lt;div style=&quot;font-size: 14px&quot;&gt;&lt;font style=&quot;font-size: 14px&quot;&gt;&lt;span style=&quot;white-space: pre&quot;&gt;&#9;&lt;/span&gt;C&lt;span style=&quot;white-space: pre&quot;&gt;&#9;&lt;/span&gt;chance node&lt;br&gt;&lt;/font&gt;&lt;/div&gt;" style="rounded=0;whiteSpace=wrap;html=1;fontSize=9;align=left;" parent="WIyWlLk6GJQsqaUBKTNV-1" vertex="1">
                    <mxGeometry x="30" y="25" width="310" height="105" as="geometry"/>
                </mxCell>
                <mxCell id="RyKBKjVpuNBoleXuHlPU-1" value="&lt;span style=&quot;white-space: pre&quot;&gt;&lt;/span&gt;&lt;span style=&quot;white-space: pre&quot;&gt;&#9;&lt;/span&gt;S node: chance defined, strategy open&lt;div&gt;&lt;span style=&quot;white-space: pre&quot;&gt;&#9;&lt;/span&gt;C node: chance undefined, strategy closed&lt;/div&gt;&lt;div&gt;&lt;br&gt;&lt;/div&gt;&lt;div&gt;&lt;span style=&quot;white-space: pre&quot;&gt;&#9;&lt;/span&gt;S has certain chance P[n], where n is index of chance&lt;/div&gt;" style="rounded=0;whiteSpace=wrap;html=1;fontSize=9;align=left;" parent="WIyWlLk6GJQsqaUBKTNV-1" vertex="1">
                    <mxGeometry x="384.64" y="80" width="253.83" height="65" as="geometry"/>
                </mxCell>
                <mxCell id="RyKBKjVpuNBoleXuHlPU-10" value="" style="edgeStyle=none;rounded=0;orthogonalLoop=1;jettySize=auto;html=1;fontSize=9;entryX=0.5;entryY=0;entryDx=0;entryDy=0;endArrow=none;endFill=0;" parent="WIyWlLk6GJQsqaUBKTNV-1" source="RyKBKjVpuNBoleXuHlPU-11" target="RyKBKjVpuNBoleXuHlPU-16" edge="1">
                    <mxGeometry relative="1" as="geometry">
                        <mxPoint x="195.797249070632" y="340" as="targetPoint"/>
                    </mxGeometry>
                </mxCell>
                <mxCell id="RyKBKjVpuNBoleXuHlPU-11" value="S-" style="rounded=0;whiteSpace=wrap;html=1;fontSize=9;" parent="WIyWlLk6GJQsqaUBKTNV-1" vertex="1">
                    <mxGeometry x="184.64483271375462" y="240" width="22.304832713754646" height="20" as="geometry"/>
                </mxCell>
                <mxCell id="RyKBKjVpuNBoleXuHlPU-12" value="" style="edgeStyle=none;rounded=0;orthogonalLoop=1;jettySize=auto;html=1;fontSize=9;entryX=0.5;entryY=0;entryDx=0;entryDy=0;endArrow=none;endFill=0;" parent="WIyWlLk6GJQsqaUBKTNV-1" target="RyKBKjVpuNBoleXuHlPU-17" edge="1">
                    <mxGeometry relative="1" as="geometry">
                        <mxPoint x="196.17000000000002" y="260" as="sourcePoint"/>
                    </mxGeometry>
                </mxCell>
                <mxCell id="RyKBKjVpuNBoleXuHlPU-13" value="" style="edgeStyle=none;rounded=0;orthogonalLoop=1;jettySize=auto;html=1;fontSize=9;exitX=0.5;exitY=1;exitDx=0;exitDy=0;entryX=0.5;entryY=0;entryDx=0;entryDy=0;endArrow=none;endFill=0;" parent="WIyWlLk6GJQsqaUBKTNV-1" source="RyKBKjVpuNBoleXuHlPU-11" target="RyKBKjVpuNBoleXuHlPU-15" edge="1">
                    <mxGeometry relative="1" as="geometry">
                        <mxPoint x="173.49241635687736" y="200" as="sourcePoint"/>
                    </mxGeometry>
                </mxCell>
                <object label="" branch="0" id="RyKBKjVpuNBoleXuHlPU-14">
                    <mxCell style="group;fontSize=9;" parent="WIyWlLk6GJQsqaUBKTNV-1" vertex="1" connectable="0">
                        <mxGeometry x="162.34000000000003" y="280" width="66.17100371747212" height="20" as="geometry"/>
                    </mxCell>
                </object>
                <mxCell id="RyKBKjVpuNBoleXuHlPU-15" value="" style="rounded=0;whiteSpace=wrap;html=1;fontSize=9;" parent="RyKBKjVpuNBoleXuHlPU-14" vertex="1">
                    <mxGeometry width="22.304832713754646" height="20" as="geometry"/>
                </mxCell>
                <mxCell id="RyKBKjVpuNBoleXuHlPU-16" value="" style="rounded=0;whiteSpace=wrap;html=1;fontSize=9;" parent="RyKBKjVpuNBoleXuHlPU-14" vertex="1">
                    <mxGeometry x="22.304832713754646" width="22.304832713754646" height="20" as="geometry"/>
                </mxCell>
                <mxCell id="RyKBKjVpuNBoleXuHlPU-17" value="" style="rounded=0;whiteSpace=wrap;html=1;fontSize=9;" parent="RyKBKjVpuNBoleXuHlPU-14" vertex="1">
                    <mxGeometry x="43.86617100371747" width="22.304832713754646" height="20" as="geometry"/>
                </mxCell>
                <object label="" branch="0" id="RyKBKjVpuNBoleXuHlPU-18">
                    <mxCell style="group;fontSize=9;fontStyle=1;" parent="WIyWlLk6GJQsqaUBKTNV-1" vertex="1" connectable="0">
                        <mxGeometry x="30" y="340" width="66.17100371747212" height="20" as="geometry"/>
                    </mxCell>
                </object>
                <mxCell id="RyKBKjVpuNBoleXuHlPU-19" value="S+" style="rounded=0;whiteSpace=wrap;html=1;fontSize=9;fontStyle=1;" parent="RyKBKjVpuNBoleXuHlPU-18" vertex="1">
                    <mxGeometry width="22.304832713754646" height="20" as="geometry"/>
                </mxCell>
                <mxCell id="RyKBKjVpuNBoleXuHlPU-20" value="C" style="rounded=0;whiteSpace=wrap;html=1;fontSize=9;fontStyle=1;" parent="RyKBKjVpuNBoleXuHlPU-18" vertex="1">
                    <mxGeometry x="22.304832713754646" width="22.304832713754646" height="20" as="geometry"/>
                </mxCell>
                <mxCell id="RyKBKjVpuNBoleXuHlPU-21" value="C" style="rounded=0;whiteSpace=wrap;html=1;fontSize=9;fontStyle=1;" parent="RyKBKjVpuNBoleXuHlPU-18" vertex="1">
                    <mxGeometry x="43.86617100371747" width="22.304832713754646" height="20" as="geometry"/>
                </mxCell>
                <object label="" branch="0" id="RyKBKjVpuNBoleXuHlPU-22">
                    <mxCell style="group;fontSize=9;fontStyle=1;" parent="WIyWlLk6GJQsqaUBKTNV-1" vertex="1" connectable="0">
                        <mxGeometry x="96.17" y="340" width="220.44100371747209" height="20" as="geometry"/>
                    </mxCell>
                </object>
                <mxCell id="RyKBKjVpuNBoleXuHlPU-23" value="C" style="rounded=0;whiteSpace=wrap;html=1;fontSize=9;fontStyle=1;" parent="RyKBKjVpuNBoleXuHlPU-22" vertex="1">
                    <mxGeometry width="22.304832713754646" height="20" as="geometry"/>
                </mxCell>
                <object label="" branch="0" id="RyKBKjVpuNBoleXuHlPU-30">
                    <mxCell style="group;fontSize=9;fontStyle=1;" parent="RyKBKjVpuNBoleXuHlPU-22" vertex="1" connectable="0">
                        <mxGeometry x="21.929999999999993" width="66.17100371747212" height="20" as="geometry"/>
                    </mxCell>
                </object>
                <mxCell id="RyKBKjVpuNBoleXuHlPU-31" value="S+" style="rounded=0;whiteSpace=wrap;html=1;fontSize=9;fontStyle=1;" parent="RyKBKjVpuNBoleXuHlPU-30" vertex="1">
                    <mxGeometry width="22.304832713754646" height="20" as="geometry"/>
                </mxCell>
                <mxCell id="RyKBKjVpuNBoleXuHlPU-32" value="S-" style="rounded=0;whiteSpace=wrap;html=1;fontSize=9;fontStyle=1;" parent="RyKBKjVpuNBoleXuHlPU-30" vertex="1">
                    <mxGeometry x="22.304832713754646" width="22.304832713754646" height="20" as="geometry"/>
                </mxCell>
                <mxCell id="RyKBKjVpuNBoleXuHlPU-33" value="S-" style="rounded=0;whiteSpace=wrap;html=1;fontSize=9;fontStyle=1;" parent="RyKBKjVpuNBoleXuHlPU-30" vertex="1">
                    <mxGeometry x="43.86617100371747" width="22.304832713754646" height="20" as="geometry"/>
                </mxCell>
                <object label="" branch="0" id="RyKBKjVpuNBoleXuHlPU-34">
                    <mxCell style="group;fontSize=9;fontStyle=1;" parent="RyKBKjVpuNBoleXuHlPU-22" vertex="1" connectable="0">
                        <mxGeometry x="88.10000000000001" width="66.17100371747212" height="20" as="geometry"/>
                    </mxCell>
                </object>
                <mxCell id="RyKBKjVpuNBoleXuHlPU-35" value="S+" style="rounded=0;whiteSpace=wrap;html=1;fontSize=9;fontStyle=1;" parent="RyKBKjVpuNBoleXuHlPU-34" vertex="1">
                    <mxGeometry width="22.304832713754646" height="20" as="geometry"/>
                </mxCell>
                <mxCell id="RyKBKjVpuNBoleXuHlPU-36" value="S-" style="rounded=0;whiteSpace=wrap;html=1;fontSize=9;fontStyle=1;" parent="RyKBKjVpuNBoleXuHlPU-34" vertex="1">
                    <mxGeometry x="22.304832713754646" width="22.304832713754646" height="20" as="geometry"/>
                </mxCell>
                <mxCell id="RyKBKjVpuNBoleXuHlPU-37" value="S-" style="rounded=0;whiteSpace=wrap;html=1;fontSize=9;fontStyle=1;" parent="RyKBKjVpuNBoleXuHlPU-34" vertex="1">
                    <mxGeometry x="43.86617100371747" width="22.304832713754646" height="20" as="geometry"/>
                </mxCell>
                <object label="" branch="0" id="RyKBKjVpuNBoleXuHlPU-38">
                    <mxCell style="group;fontSize=9;fontStyle=1;" parent="RyKBKjVpuNBoleXuHlPU-22" vertex="1" connectable="0">
                        <mxGeometry x="154.26999999999998" width="66.17100371747212" height="20" as="geometry"/>
                    </mxCell>
                </object>
                <mxCell id="RyKBKjVpuNBoleXuHlPU-39" value="S+" style="rounded=0;whiteSpace=wrap;html=1;fontSize=9;fontStyle=1;" parent="RyKBKjVpuNBoleXuHlPU-38" vertex="1">
                    <mxGeometry width="22.304832713754646" height="20" as="geometry"/>
                </mxCell>
                <mxCell id="RyKBKjVpuNBoleXuHlPU-40" value="S-" style="rounded=0;whiteSpace=wrap;html=1;fontSize=9;fontStyle=1;" parent="RyKBKjVpuNBoleXuHlPU-38" vertex="1">
                    <mxGeometry x="22.304832713754646" width="22.304832713754646" height="20" as="geometry"/>
                </mxCell>
                <mxCell id="RyKBKjVpuNBoleXuHlPU-41" value="S-" style="rounded=0;whiteSpace=wrap;html=1;fontSize=9;fontStyle=1;" parent="RyKBKjVpuNBoleXuHlPU-38" vertex="1">
                    <mxGeometry x="43.86617100371747" width="22.304832713754646" height="20" as="geometry"/>
                </mxCell>
            </root>
        </mxGraphModel>
    </diagram>
</mxfile>